<?xml version="1.0" encoding="UTF-8"?>
<svg version="1.1" xmlns="http://www.w3.org/2000/svg" width="204" height="192">
<path d="M0 0 C1.14896255 -0.02862122 2.29792511 -0.05724243 3.48170471 -0.08673096 C7.2731644 -0.16699741 11.06101365 -0.17983239 14.85327148 -0.18505859 C16.83054092 -0.20477769 18.80781118 -0.22451553 20.78505462 -0.24668825 C27.00380169 -0.3146622 33.22136491 -0.33233528 39.44042969 -0.32128906 C45.82365987 -0.31106945 52.20058784 -0.39695458 58.58231884 -0.52906477 C64.08698293 -0.63887032 69.58961816 -0.68172539 75.09536403 -0.67403352 C78.373393 -0.67046253 81.64489793 -0.69999098 84.92209053 -0.78099442 C106.32593457 -1.25794018 106.32593457 -1.25794018 113.02194214 4.96099854 C116.14095788 8.4399614 118.69281896 12.15823829 121.0916729 16.15999222 C123.12207703 19.43817374 125.54146258 22.37038841 127.97436523 25.35400391 C128.85438351 26.4771165 129.73227895 27.60189868 130.60717773 28.72900391 C134.85026426 34.14544937 139.21483806 39.46429502 143.56420898 44.79541016 C144.29293213 45.70444092 144.29293213 45.70444092 145.03637695 46.63183594 C146.24148254 48.08591968 147.54115457 49.46054423 148.85327148 50.81884766 C150.41186523 53.29150391 150.41186523 53.29150391 150.43530273 56.75634766 C149.27149069 60.77638545 147.82862016 62.75841445 145.03686523 65.85400391 C144.11940241 66.89643178 143.2041189 67.94078084 142.29077148 68.98681641 C141.81526855 69.5259668 141.33976563 70.06511719 140.84985352 70.62060547 C138.45180349 73.40706631 136.22099372 76.32020275 133.97436523 79.22900391 C129.88305881 84.48759783 125.65708129 89.60741618 121.33056641 94.67358398 C117.92657069 98.66415946 114.62820192 102.72549085 111.36889648 106.83447266 C107.0522104 112.25402464 102.63578446 117.59415643 98.22827148 122.93994141 C94.09536979 127.96425327 90.03588321 133.0356751 86.03686523 138.16650391 C81.99372812 143.34999493 77.82132988 148.39652267 73.54394531 153.38769531 C70.15965942 157.35622724 66.92443827 161.42355897 63.72436523 165.54150391 C61.95830999 167.79529418 60.18600558 170.04407602 58.41186523 172.29150391 C57.65518555 173.25443359 56.89850586 174.21736328 56.11889648 175.20947266 C55.08829102 176.45664062 55.08829102 176.45664062 54.03686523 177.72900391 C53.45163086 178.44958984 52.86639648 179.17017578 52.26342773 179.91259766 C50.41186523 181.29150391 50.41186523 181.29150391 47.95874023 181.29541016 C44.73269545 180.02379434 43.28587211 178.42211123 41.03686523 175.79150391 C39.86510742 174.42832031 39.86510742 174.42832031 38.66967773 173.03759766 C36.12339921 169.94065336 33.63913588 166.80812961 31.20874023 163.61962891 C29.24211549 161.07156729 27.20954412 158.58735915 25.16186523 156.10400391 C21.68600202 151.87740152 18.28199259 147.60226813 14.91186523 143.29150391 C10.16284641 137.22066113 5.31426974 131.23940329 0.41186523 125.29150391 C-1.08884652 123.45875314 -2.58884115 121.62541496 -4.08813477 119.79150391 C-4.83708008 118.87626953 -5.58602539 117.96103516 -6.35766602 117.01806641 C-7.79313412 115.26332606 -9.22807272 113.50815236 -10.66235352 111.75244141 C-15.29137351 106.08809532 -19.93640329 100.43720568 -24.58813477 94.79150391 C-26.38009251 92.61582828 -28.1719222 90.44004734 -29.96362305 88.26416016 C-30.96958057 87.04261871 -31.97572779 85.82123342 -32.98217773 84.60009766 C-37.37843503 79.26385674 -41.74400721 73.91049878 -45.94750977 68.42041016 C-47.06194006 66.97430418 -48.19835421 65.54493011 -49.35375977 64.13134766 C-49.90547852 63.44169922 -50.45719727 62.75205078 -51.02563477 62.04150391 C-51.5193457 61.43822266 -52.01305664 60.83494141 -52.52172852 60.21337891 C-53.96136309 57.61887264 -54.07198542 56.22539831 -53.58813477 53.29150391 C-51.78735352 50.67041016 -51.78735352 50.67041016 -49.27563477 47.85400391 C-48.34527863 46.78801234 -47.41696605 45.72023452 -46.49047852 44.65087891 C-46.00820801 44.09851562 -45.5259375 43.54615234 -45.02905273 42.97705078 C-42.70517857 40.25864563 -40.52604447 37.43209026 -38.33813477 34.60400391 C-33.54574471 28.44668715 -28.61117047 22.41475016 -23.62231445 16.41577148 C-23.06962891 15.74956787 -22.51694336 15.08336426 -21.94750977 14.39697266 C-21.42025016 13.77437246 -20.89299055 13.15177227 -20.34975338 12.5103054 C-18.55429005 10.33425675 -18.55429005 10.33425675 -17.13621616 7.96723366 C-12.40174498 0.70832683 -8.38558659 -0.04407388 0 0 Z M-3.58813477 8.29150391 C-1.1279534 17.35387718 -1.1279534 17.35387718 1.67358398 26.27197266 C2.0699707 27.4546875 2.46635742 28.63740234 2.87475586 29.85595703 C3.27887695 31.0515625 3.68299805 32.24716797 4.09936523 33.47900391 C4.51508789 34.71714844 4.93081055 35.95529297 5.35913086 37.23095703 C6.37394837 40.25208044 7.39157495 43.27222531 8.41186523 46.29150391 C9.40186523 46.29150391 10.39186523 46.29150391 11.41186523 46.29150391 C13.21872116 44.51379168 13.21872116 44.51379168 14.97436523 42.10400391 C15.68077148 41.18748047 16.38717773 40.27095703 17.11499023 39.32666016 C18.25194336 37.82425781 18.25194336 37.82425781 19.41186523 36.29150391 C20.60345927 34.74282623 21.79508573 33.19417265 22.98828125 31.64672852 C23.81589762 30.57195514 24.64189478 29.49593306 25.46630859 28.41870117 C27.78595915 25.38901721 30.12619971 22.37758502 32.49389648 19.38525391 C33.00138428 18.74362305 33.50887207 18.10199219 34.03173828 17.44091797 C35.02201525 16.19122538 36.0143126 14.94313066 37.00878906 13.69677734 C39.35825923 11.26104495 39.35825923 11.26104495 40.41186523 8.29150391 C25.89186523 8.29150391 11.37186523 8.29150391 -3.58813477 8.29150391 Z M56.41186523 8.29150391 C60.0451535 13.13588827 63.67237215 17.96867013 67.41186523 22.72900391 C67.86827393 23.31029053 68.32468262 23.89157715 68.79492188 24.49047852 C74.36520337 31.54827309 80.10424399 38.46803361 85.84716797 45.38549805 C87.41186523 47.29150391 87.41186523 47.29150391 88.93652344 49.99316406 C92.86472592 53.64047624 96.91920252 52.91208145 102.08374023 52.77978516 C103.12129456 52.77271042 104.15884888 52.76563568 105.22784424 52.75834656 C108.53991972 52.73037031 111.85030123 52.66762319 115.16186523 52.60400391 C117.40793456 52.57892533 119.6540304 52.5561114 121.90014648 52.53564453 C127.40463016 52.4805333 132.90812668 52.39687451 138.41186523 52.29150391 C136.45811964 48.98906778 134.45921025 45.95669002 132.03686523 42.97900391 C131.34206055 42.12048828 130.64725586 41.26197266 129.93139648 40.37744141 C128.57166255 38.71203086 127.21175348 37.04676291 125.85083008 35.38232422 C124.71668762 33.99493948 123.58324269 32.60698429 122.45043945 31.21850586 C121.32535958 29.84024323 120.19818039 28.46369079 119.06860352 27.08911133 C116.48037745 23.92130834 114.01005137 20.7464209 111.70483398 17.36572266 C109.70314872 14.07116212 109.70314872 14.07116212 106.41186523 13.29150391 C102.66729805 23.83460905 99.80513403 34.36803684 97.41186523 45.29150391 C95.74574618 45.33422491 94.07803639 45.33214223 92.41186523 45.29150391 C92.08186523 44.96150391 91.75186523 44.63150391 91.41186523 44.29150391 C91.87900741 37.25100403 93.87404937 30.76875144 95.91186523 24.04150391 C96.54781517 21.91145471 97.18325324 19.78125261 97.81811523 17.65087891 C98.09977539 16.71727539 98.38143555 15.78367187 98.67163086 14.82177734 C99.30415575 12.6596771 99.86549942 10.47696715 100.41186523 8.29150391 C85.89186523 8.29150391 71.37186523 8.29150391 56.41186523 8.29150391 Z M47.41186523 12.29150391 C45.32340983 14.57885982 43.3590175 16.88696688 41.41186523 19.29150391 C40.8459668 19.98244141 40.28006836 20.67337891 39.69702148 21.38525391 C34.74303978 27.50179792 29.94777541 33.74259777 25.22607422 40.03979492 C22.14557699 44.12913117 18.92882174 47.87627089 15.41186523 51.60400391 C12.89296948 54.80404794 12.89296948 54.80404794 12.55761719 58.73486328 C12.81502686 59.63011719 13.07243652 60.52537109 13.33764648 61.44775391 C13.64138184 62.50969971 13.94511719 63.57164551 14.25805664 64.66577148 C16.31193135 71.11987501 18.47808206 77.52945128 20.7088623 83.92443848 C27.48645832 103.36717348 33.91204175 122.91936061 40.25634766 142.50708008 C40.58602036 143.52317856 40.91569305 144.53927704 41.25535583 145.58616638 C41.87302317 147.49071232 42.48913992 149.39576211 43.10340881 151.30140686 C44.41785714 155.35589288 45.74896541 159.36267464 47.41186523 163.29150391 C48.07186523 163.29150391 48.73186523 163.29150391 49.41186523 163.29150391 C57.34776296 140.28760745 65.12904582 117.24157462 72.61547852 94.0871582 C72.88876984 93.24194107 73.16206116 92.39672394 73.44363403 91.52589417 C73.97817537 89.872376 74.51242384 88.21876312 75.0463562 86.56504822 C77.18762986 79.94701715 79.38299179 73.3476635 81.60949707 66.75782776 C82.86416464 63.59116252 82.86416464 63.59116252 83.41186523 60.29150391 C51.73186523 59.79650391 51.73186523 59.79650391 19.41186523 59.29150391 C19.41186523 54.29150391 19.41186523 54.29150391 20.41186523 53.29150391 C22.31346635 53.16799733 24.21958913 53.11356948 26.125 53.08618164 C27.34619034 53.06623642 28.56738068 53.0462912 29.82557678 53.02574158 C31.16814037 53.008756 32.51070531 52.99187724 33.85327148 52.97509766 C35.21948384 52.95453444 36.58568974 52.93353814 37.95188904 52.91212463 C41.55381048 52.85683856 45.15578995 52.80745828 48.7578125 52.75927734 C52.43096095 52.70910988 56.10402478 52.65339906 59.77709961 52.59814453 C66.98861656 52.49048309 74.20020371 52.38905604 81.41186523 52.29150391 C80.45322817 51.01166188 79.49436248 49.73199109 78.53540039 48.45239258 C78.0014566 47.73975754 77.46751282 47.0271225 76.91738892 46.29289246 C75.22782874 44.04685247 73.51550055 41.82009799 71.78686523 39.60400391 C70.9631543 38.54632813 70.9631543 38.54632813 70.12280273 37.46728516 C65.30412214 31.33941966 60.36585236 25.31012604 55.41186523 19.29150391 C54.80213867 18.54255859 54.19241211 17.79361328 53.56420898 17.02197266 C52.22523107 15.40664549 50.82493387 13.84243289 49.41186523 12.29150391 C48.75186523 12.29150391 48.09186523 12.29150391 47.41186523 12.29150391 Z M-11.58813477 13.29150391 C-12.01481445 13.82775391 -12.44149414 14.36400391 -12.88110352 14.91650391 C-16.13315763 18.99330576 -19.39419262 23.06082046 -22.69750977 27.09619141 C-34.25415184 38.90346012 -34.25415184 38.90346012 -41.58813477 52.29150391 C-27.06813477 52.29150391 -12.54813477 52.29150391 2.41186523 52.29150391 C0.09579685 43.79925317 -2.38396247 35.50714078 -5.15063477 27.16650391 C-5.54959961 25.93673828 -5.94856445 24.70697266 -6.35961914 23.43994141 C-6.74569336 22.27462891 -7.13176758 21.10931641 -7.52954102 19.90869141 C-7.87702393 18.85278809 -8.22450684 17.79688477 -8.58251953 16.70898438 C-9.34095758 14.14256546 -9.34095758 14.14256546 -11.58813477 13.29150391 Z M-41.58813477 60.29150391 C-37.45523659 65.80203481 -33.32006886 71.30882291 -29.15063477 76.79150391 C-28.61631836 77.49919922 -28.08200195 78.20689453 -27.53149414 78.93603516 C-24.23577363 83.26438838 -20.79805227 87.40855781 -17.18847656 91.47851562 C-15.13501389 93.80483352 -13.16873353 96.19509584 -11.21313477 98.60400391 C-10.07231445 100.00585938 -10.07231445 100.00585938 -8.90844727 101.43603516 C-8.14274414 102.37833984 -7.37704102 103.32064453 -6.58813477 104.29150391 C-5.08884115 106.12541496 -3.58884652 107.95875314 -2.08813477 109.79150391 C-1.34176758 110.70416016 -0.59540039 111.61681641 0.17358398 112.55712891 C1.63281135 114.33978014 3.09367125 116.12109666 4.55639648 117.90087891 C8.83255286 123.10931442 13.07457822 128.34386753 17.28686523 133.60400391 C17.78855225 134.23032715 18.29023926 134.85665039 18.80712891 135.50195312 C21.41060099 138.7603527 23.99480954 142.03216945 26.55249023 145.32666016 C27.05409668 145.97143311 27.55570312 146.61620605 28.07250977 147.28051758 C29.0300177 148.51372011 29.98426285 149.74946472 30.93481445 150.98803711 C33.26399248 154.10704872 33.26399248 154.10704872 36.41186523 156.29150391 C35.27300303 148.67129717 33.36897803 141.78199245 30.59936523 134.60400391 C28.17071021 128.12540549 25.79998541 121.66217076 23.78686523 115.04150391 C21.43984863 107.33723013 18.90704376 99.70450265 16.34204102 92.0703125 C15.24331762 88.7879845 14.15353989 85.50274209 13.06420898 82.21728516 C12.6571875 80.99114502 12.25016602 79.76500488 11.83081055 78.50170898 C11.01795319 76.05266194 10.20608377 73.60328674 9.39526367 71.15356445 C9.02304687 70.03377197 8.65083008 68.91397949 8.26733398 67.76025391 C7.76689575 66.25108398 7.76689575 66.25108398 7.25634766 64.71142578 C6.48011123 62.32171131 6.48011123 62.32171131 5.41186523 60.29150391 C-10.09813477 60.29150391 -25.60813477 60.29150391 -41.58813477 60.29150391 Z M91.41186523 60.29150391 C84.65836611 78.78096366 84.65836611 78.78096366 78.57983398 97.49462891 C77.29301116 101.67787901 75.9274511 105.82936208 74.53686523 109.97900391 C74.28928467 110.71844238 74.0417041 111.45788086 73.78662109 112.21972656 C72.9961231 114.57735216 72.20412931 116.93447124 71.41186523 119.29150391 C69.0621644 126.28614315 66.72663251 133.28522512 64.41186523 140.29150391 C64.05850098 141.35232178 64.05850098 141.35232178 63.69799805 142.43457031 C63.09310188 144.25875269 62.50188119 146.08745446 61.91186523 147.91650391 C61.43233398 149.38990234 61.43233398 149.38990234 60.94311523 150.89306641 C60.16841529 153.41766083 60.16841529 153.41766083 61.41186523 156.29150391 C70.8408747 144.79152337 80.25013784 133.27480486 89.52124023 121.64697266 C92.38486845 118.07927057 95.29187438 114.54738317 98.19311523 111.01025391 C100.2824995 108.45002249 102.35151006 105.87512389 104.41186523 103.29150391 C108.69787194 97.91914302 113.05265945 92.60451882 117.41186523 87.29150391 C119.65533001 84.55035544 121.89795586 81.8085368 124.13842773 79.06494141 C125.7098232 77.14794694 127.28842711 75.23684691 128.87280273 73.33056641 C129.66944336 72.36892578 130.46608398 71.40728516 131.28686523 70.41650391 C132.00616211 69.55283203 132.72545898 68.68916016 133.46655273 67.79931641 C135.73535816 64.97721246 135.73535816 64.97721246 138.41186523 60.29150391 C122.90186523 60.29150391 107.39186523 60.29150391 91.41186523 60.29150391 Z " fill="#313131" transform="translate(53.588134765625,4.70849609375)"/>
<path d="M0 0 C0 0.99 0 1.98 0 3 C-0.66 3.66 -1.32 4.32 -2 5 C-1.67 5.66 -1.34 6.32 -1 7 C-2.24839499 8.105981 -3.49879234 9.20970201 -4.75 10.3125 C-5.44609375 10.92738281 -6.1421875 11.54226562 -6.859375 12.17578125 C-8.85114506 13.87314734 -10.88898915 15.45477809 -13 17 C-11.3867231 13.2999845 -9.06926004 10.46979051 -6.5 7.375 C-5.7059375 6.41335937 -4.911875 5.45171875 -4.09375 4.4609375 C-2 2 -2 2 0 0 Z " fill="#818181" transform="translate(163,101)"/>
<path d="M0 0 C2 2 2 2 2 5 C2.66 5 3.32 5 4 5 C4.33 3.35 4.66 1.7 5 0 C5.93065133 2.60582371 6.14917407 3.64198224 5.0625 6.25 C4.5365625 7.11625 4.5365625 7.11625 4 8 C3.34 8 2.68 8 2 8 C0.23537317 4.91190305 0 3.76687864 0 0 Z " fill="#A6A6A6" transform="translate(99,163)"/>
<path d="M0 0 C0.33 0.99 0.66 1.98 1 3 C-1.64 5.64 -4.28 8.28 -7 11 C-7 7.22089522 -6.00296038 6.53893899 -3.5 3.8125 C-2.8503125 3.09707031 -2.200625 2.38164063 -1.53125 1.64453125 C-1.0259375 1.10183594 -0.520625 0.55914062 0 0 Z " fill="#7B7B7B" transform="translate(10,46)"/>
<path d="M0 0 C1.60156595 4.00391487 0.4087561 7.07031192 -1 11 C-1.99 11.495 -1.99 11.495 -3 12 C-2.49202991 7.6822542 -1.80317221 3.96697886 0 0 Z " fill="#B8B8B8" transform="translate(114,154)"/>
</svg>
